<?xml version="1.0" standalone="no"?>
<svg
  width="600"
  height="600"
  viewBox="0 0 600 600"
  xmlns="http://www.w3.org/2000/svg"
>
  <g transform="translate(300,300)">
    <path d="M108.5,-180.6C139.1,-149.1,161.4,-116.5,182.4,-80.4C203.3,-44.3,222.9,-4.7,223.8,36.5C224.6,77.8,206.8,120.8,180.1,161.8C153.5,202.9,118,242,77.6,244.9C37.3,247.9,-8,214.6,-55.4,196.9C-102.8,179.2,-152.3,177,-181,152.2C-209.7,127.4,-217.7,79.9,-221.7,33.6C-225.6,-12.7,-225.6,-57.9,-209.8,-97.2C-194,-136.5,-162.4,-170.1,-124.8,-198.4C-87.2,-226.7,-43.6,-249.9,-2.3,-246.2C38.9,-242.6,77.9,-212.1,108.5,-180.6Z" fill="#8ed1fc" />
  </g>
</svg>
  